<svg data-v-423bf9ae="" xmlns="http://www.w3.org/2000/svg" viewBox="0 0 462 90" class="iconLeft"><!----><!----><!----><g data-v-423bf9ae="" id="09e93f98-2ee8-4313-9c7e-d7b21a3c2d8b" fill="white" transform="matrix(4.357298330093473,0,0,4.357298330093473,109.6949901173638,2.3638349040217363)"><path d="M0.56 5.17L0.56 3.09L4.48 3.09L4.48 5.17L3.75 5.17L3.75 12.28L3.75 12.28Q3.60 12.83 3.32 13.29L3.32 13.29L3.32 13.29Q3.03 13.75 2.75 14.13L2.75 14.13L2.75 14.13Q2.47 14.51 1.98 15.08L1.98 15.08L0.07 14.98L0.07 14.98Q0.47 14.36 0.70 13.96L0.70 13.96L0.70 13.96Q0.93 13.56 1.16 13.08L1.16 13.08L1.16 13.08Q1.39 12.60 1.52 12.05L1.52 12.05L1.52 5.17L0.56 5.17ZM9.63 8.24L9.63 6.37L12.98 6.37L12.98 11.58L13.84 11.58L13.84 13.45L10.83 13.45L10.83 12.85L10.83 12.85Q10.47 13.18 9.99 13.36L9.99 13.36L9.99 13.36Q9.50 13.54 8.87 13.54L8.87 13.54L8.87 13.54Q8.28 13.54 7.76 13.35L7.76 13.35L7.76 13.35Q7.24 13.17 6.85 12.79L6.85 12.79L6.85 12.79Q6.47 12.42 6.24 11.86L6.24 11.86L6.24 11.86Q6.02 11.30 6.02 10.54L6.02 10.54L6.02 8.24L5.10 8.24L5.10 6.37L8.23 6.37L8.23 10.54L8.23 10.54Q8.23 11.25 8.59 11.60L8.59 11.60L8.59 11.60Q8.96 11.96 9.54 11.96L9.54 11.96L9.54 11.96Q9.95 11.96 10.28 11.70L10.28 11.70L10.28 11.70Q10.62 11.45 10.77 11.02L10.77 11.02L10.77 8.24L9.63 8.24ZM14.89 8.24L14.89 6.37L18.13 6.37L18.13 6.99L18.13 6.99Q18.57 6.64 19.11 6.43L19.11 6.43L19.11 6.43Q19.66 6.23 20.24 6.23L20.24 6.23L20.24 6.23Q21.05 6.23 21.63 6.51L21.63 6.51L21.63 6.51Q22.20 6.79 22.53 7.38L22.53 7.38L22.53 7.38Q22.76 7.12 23.04 6.91L23.04 6.91L23.04 6.91Q23.32 6.71 23.65 6.55L23.65 6.55L23.65 6.55Q23.97 6.40 24.32 6.31L24.32 6.31L24.32 6.31Q24.67 6.23 25.04 6.23L25.04 6.23L25.04 6.23Q26.34 6.23 27.04 6.95L27.04 6.95L27.04 6.95Q27.73 7.66 27.73 9.04L27.73 9.04L27.73 11.58L28.74 11.58L28.74 13.45L25.50 13.45L25.50 9.39L25.50 9.39Q25.50 8.79 25.19 8.45L25.19 8.45L25.19 8.45Q24.88 8.11 24.33 8.11L24.33 8.11L24.33 8.11Q23.95 8.11 23.61 8.29L23.61 8.29L23.61 8.29Q23.27 8.47 22.93 8.91L22.93 8.91L22.93 8.91Q22.94 8.99 22.94 9.07L22.94 9.07L22.94 9.07Q22.94 9.15 22.94 9.23L22.94 9.23L22.94 11.58L23.97 11.58L23.97 13.45L20.73 13.45L20.73 9.38L20.73 9.38Q20.73 9.09 20.64 8.86L20.64 8.86L20.64 8.86Q20.56 8.63 20.40 8.46L20.40 8.46L20.40 8.46Q20.24 8.30 20.03 8.21L20.03 8.21L20.03 8.21Q19.81 8.11 19.55 8.11L19.55 8.11L19.55 8.11Q19.21 8.10 18.84 8.26L18.84 8.26L18.84 8.26Q18.48 8.42 18.14 8.84L18.14 8.84L18.14 11.58L19.28 11.58L19.28 13.45L14.88 13.45L14.88 11.58L15.93 11.58L15.93 8.24L14.89 8.24ZM29.88 8.24L29.88 6.37L32.97 6.37L32.97 6.47L32.97 6.47Q33.30 6.33 33.64 6.24L33.64 6.24L33.64 6.24Q33.98 6.16 34.34 6.16L34.34 6.16L34.34 6.16Q35.12 6.16 35.79 6.45L35.79 6.45L35.79 6.45Q36.46 6.75 36.96 7.25L36.96 7.25L36.96 7.25Q37.45 7.76 37.72 8.44L37.72 8.44L37.72 8.44Q38.00 9.11 38.00 9.87L38.00 9.87L38.00 9.87Q38.00 10.64 37.73 11.31L37.73 11.31L37.73 11.31Q37.46 11.99 36.98 12.49L36.98 12.49L36.98 12.49Q36.49 13.00 35.82 13.29L35.82 13.29L35.82 13.29Q35.14 13.58 34.34 13.58L34.34 13.58L34.34 13.58Q33.89 13.58 33.50 13.49L33.50 13.49L33.50 13.49Q33.11 13.41 32.75 13.25L32.75 13.25L32.75 14.80L34.10 14.80L34.10 16.67L29.48 16.67L29.48 14.80L30.65 14.80L30.65 8.24L29.88 8.24ZM34.19 8.05L34.19 8.05L34.19 8.05Q33.76 8.05 33.39 8.27L33.39 8.27L33.39 8.27Q33.01 8.50 32.75 8.91L32.75 8.91L32.75 10.90L32.75 10.90Q32.97 11.25 33.35 11.47L33.35 11.47L33.35 11.47Q33.72 11.69 34.19 11.69L34.19 11.69L34.19 11.69Q34.54 11.69 34.86 11.56L34.86 11.56L34.86 11.56Q35.17 11.42 35.40 11.18L35.40 11.18L35.40 11.18Q35.64 10.94 35.77 10.61L35.77 10.61L35.77 10.61Q35.91 10.27 35.91 9.88L35.91 9.88L35.91 9.88Q35.91 9.45 35.78 9.11L35.78 9.11L35.78 9.11Q35.64 8.77 35.41 8.53L35.41 8.53L35.41 8.53Q35.18 8.30 34.86 8.17L34.86 8.17L34.86 8.17Q34.55 8.05 34.19 8.05ZM48.54 4.97L48.54 3.09L52.48 3.09L52.48 4.97L51.64 4.97L51.64 13.45L49.37 13.45L45.06 6.75L45.06 11.58L45.92 11.58L45.92 13.45L41.99 13.45L41.99 11.58L42.85 11.58L42.85 4.97L42.01 4.97L42.01 3.09L45.14 3.09L49.42 9.88L49.42 4.97L48.54 4.97ZM65.30 6.24L63.19 6.24L63.19 6.24Q62.81 5.69 62.50 5.47L62.50 5.47L62.50 5.47Q62.19 5.24 61.84 5.14L61.84 5.14L61.84 5.14Q61.48 5.04 61.09 5.04L61.09 5.04L61.09 5.04Q60.52 5.04 60.03 5.29L60.03 5.29L60.03 5.29Q59.53 5.55 59.18 5.99L59.18 5.99L59.18 5.99Q58.82 6.43 58.61 7.02L58.61 7.02L58.61 7.02Q58.41 7.60 58.41 8.26L58.41 8.26L58.41 8.26Q58.41 8.92 58.61 9.51L58.61 9.51L58.61 9.51Q58.81 10.09 59.17 10.53L59.17 10.53L59.17 10.53Q59.52 10.96 60.01 11.22L60.01 11.22L60.01 11.22Q60.50 11.48 61.09 11.48L61.09 11.48L61.09 11.48Q61.50 11.48 61.86 11.34L61.86 11.34L61.86 11.34Q62.21 11.21 62.50 10.99L62.50 10.99L62.50 10.99Q62.79 10.77 63.01 10.49L63.01 10.49L63.01 10.49Q63.23 10.21 63.36 9.90L63.36 9.90L65.56 10.51L65.56 10.51Q65.34 11.18 64.93 11.75L64.93 11.75L64.93 11.75Q64.52 12.33 63.95 12.74L63.95 12.74L63.95 12.74Q63.37 13.16 62.65 13.40L62.65 13.40L62.65 13.40Q61.93 13.64 61.09 13.64L61.09 13.64L61.09 13.64Q60.39 13.64 59.75 13.45L59.75 13.45L59.75 13.45Q59.10 13.25 58.55 12.91L58.55 12.91L58.55 12.91Q57.99 12.56 57.53 12.07L57.53 12.07L57.53 12.07Q57.08 11.57 56.76 10.98L56.76 10.98L56.76 10.98Q56.44 10.38 56.26 9.69L56.26 9.69L56.26 9.69Q56.08 9.00 56.08 8.26L56.08 8.26L56.08 8.26Q56.08 7.14 56.47 6.17L56.47 6.17L56.47 6.17Q56.86 5.20 57.54 4.47L57.54 4.47L57.54 4.47Q58.21 3.74 59.13 3.32L59.13 3.32L59.13 3.32Q60.04 2.90 61.09 2.90L61.09 2.90L61.09 2.90Q61.93 2.90 62.51 3.11L62.51 3.11L62.51 3.11Q63.08 3.32 63.77 3.93L63.77 3.93L65.30 3.93L65.30 6.24ZM71.20 8.24L71.20 6.37L74.55 6.37L74.55 11.58L75.40 11.58L75.40 13.45L72.40 13.45L72.40 12.85L72.40 12.85Q72.04 13.18 71.55 13.36L71.55 13.36L71.55 13.36Q71.07 13.54 70.43 13.54L70.43 13.54L70.43 13.54Q69.84 13.54 69.32 13.35L69.32 13.35L69.32 13.35Q68.80 13.17 68.42 12.79L68.42 12.79L68.42 12.79Q68.03 12.42 67.81 11.86L67.81 11.86L67.81 11.86Q67.59 11.30 67.59 10.54L67.59 10.54L67.59 8.24L66.66 8.24L66.66 6.37L69.79 6.37L69.79 10.54L69.79 10.54Q69.79 11.25 70.16 11.60L70.16 11.60L70.16 11.60Q70.52 11.96 71.10 11.96L71.10 11.96L71.10 11.96Q71.51 11.96 71.85 11.70L71.85 11.70L71.85 11.70Q72.18 11.45 72.33 11.02L72.33 11.02L72.33 8.24L71.20 8.24ZM79.13 3.66L79.11 6.37L80.53 6.37L80.53 8.16L79.10 8.16L79.08 11.16L79.08 11.16Q79.08 11.42 79.13 11.58L79.13 11.58L79.13 11.58Q79.17 11.74 79.25 11.83L79.25 11.83L79.25 11.83Q79.32 11.93 79.43 11.96L79.43 11.96L79.43 11.96Q79.54 12.00 79.69 12.00L79.69 12.00L79.69 12.00Q79.95 12.00 80.14 11.95L80.14 11.95L80.14 11.95Q80.34 11.89 80.54 11.83L80.54 11.83L80.83 13.15L80.83 13.15Q80.49 13.36 80.06 13.49L80.06 13.49L80.06 13.49Q79.63 13.62 79.04 13.62L79.04 13.62L79.04 13.62Q78.63 13.62 78.25 13.48L78.25 13.48L78.25 13.48Q77.87 13.34 77.58 13.05L77.58 13.05L77.58 13.05Q77.29 12.76 77.12 12.32L77.12 12.32L77.12 12.32Q76.95 11.88 76.96 11.30L76.96 11.30L76.98 8.16L75.96 8.16L75.96 6.37L76.99 6.37L77 4.68L79.13 3.66Z"></path></g><!----><g data-v-423bf9ae="" id="90eed620-097c-4455-b2b1-c0dd98ad8fb3" transform="matrix(2.8125,0,0,2.8125,0,1.0290013551712036)" stroke="none" fill="white"><path d="M0 31.984h32v-32H0v32zm2-30h28v28H2v-28z"></path><path d="M6.439 16.831h8.959l-4.48-7.741zM16.602 13.331h8.959L21.082 5.59zM6.439 26.41h8.959l-4.48-7.741zM16.602 22.91h8.959l-4.479-7.741z"></path></g><!----></svg>